<svg id="Calque_1" data-name="Calque 1" xmlns="http://www.w3.org/2000/svg" viewBox="0 0 228.47 218.69"><title>bookshelf-key</title><circle cx="114.23" cy="109.35" r="109.35" transform="translate(-43.86 112.8) rotate(-45)" fill="#4153a0"/><path d="M184.11,150a6.79,6.79,0,0,0,11.71,4.51l5.34-5.62,5.77,5.48L201.59,160a6.79,6.79,0,0,0,.24,9.6,6.8,6.8,0,0,0,9.61-.24l5.34-5.62,11.69,11.11-4.58,4.82-6.06-5.76-11.08,11.65,6.06,5.77-4.58,4.81-46.62-44.3,4.58-4.82,4.51,4.29,11.08-11.66-4.51-4.29,4.58-4.81,9.46,9L186,145.11A6.74,6.74,0,0,0,184.11,150Z" fill="#c56128"/><path d="M182.89,148.81a6.79,6.79,0,0,0,11.72,4.5L200,147.7l5.76,5.47-5.34,5.62a6.79,6.79,0,1,0,9.85,9.36l5.34-5.61,11.69,11.11-4.58,4.81-6.06-5.76-11.08,11.66,6.06,5.76L207,194.94,160.4,150.63l4.58-4.82,4.5,4.29,11.09-11.66-4.51-4.29,4.57-4.81,9.47,9L184.76,144A6.73,6.73,0,0,0,182.89,148.81Z" fill="#f8ab1f"/><rect x="167.59" y="144.01" width="16.09" height="1.68" transform="translate(-50.36 172.36) rotate(-46.45)" fill="#ffe275"/><rect x="159.97" y="147.96" width="6.65" height="1.68" transform="translate(-57.06 164.65) rotate(-46.45)" fill="#ffe275"/><path d="M185.65,154.09a5.59,5.59,0,0,0,.57.62,6.78,6.78,0,0,0,9.6-.24l5.34-5.62L200,147.7l-5.34,5.61A6.78,6.78,0,0,1,185.65,154.09Z" fill="#ffe275"/><rect x="175.63" y="131.49" width="6.64" height="1.68" transform="translate(-40.25 170.88) rotate(-46.46)" fill="#ffe275"/><path d="M201.26,168.93a5.59,5.59,0,0,0,.57.62,6.8,6.8,0,0,0,9.61-.24l5.34-5.62-1.22-1.15-5.34,5.61A6.78,6.78,0,0,1,201.26,168.93Z" fill="#ffe275"/><rect x="183.27" y="139.61" width="2.8" height="64.31" transform="translate(-67.06 187.29) rotate(-46.45)" fill="#c56128"/><path d="M211.93,208.89a7,7,0,0,1-3,1.86,9.05,9.05,0,0,1-5,0,11.88,11.88,0,0,1-5.06-2.89L67.37,82.9,56.49,72.55l3-3.16c.22,0,.44,0,.64,0a5.08,5.08,0,0,0,3.36-1.47,5.35,5.35,0,0,0,1.3-4.07l3.09-3.25L78.75,70.9l131.5,125C214.32,199.76,215.08,205.59,211.93,208.89Z" fill="#f8ab1f"/><path d="M60.14,69.36,208.9,210.75a9.09,9.09,0,0,1-5,0L57.44,71.55l2.05-2.15Z" fill="#ffe275"/><path d="M209.94,207c-3.15,3.31-9,2.85-13.07-1l2,1.89c4.07,3.88,9.92,4.33,13.07,1s2.39-9.13-1.68-13l-2-1.89C212.33,197.87,213.08,203.69,209.94,207Z" fill="#ffe275"/><path d="M78.75,70.9,67.88,60.57l-3.09,3.25a5.35,5.35,0,0,1-1.3,4.07,5.08,5.08,0,0,1-3.36,1.47c-.2,0-.42,0-.64,0l-3,3.16L67.37,82.9a30.14,30.14,0,0,0-2.86-12.31A30,30,0,0,0,78.75,70.9Z" fill="#c56128"/><path d="M45.13,20.44a30,30,0,0,0-2.48,3.45A23.62,23.62,0,1,0,13.24,59.11a31.6,31.6,0,0,0-2.94,3.06,29.95,29.95,0,1,0,50.07,6.39A29.95,29.95,0,1,0,45.13,20.44ZM12.88,28.93a14,14,0,1,1,1.77,19.71A14,14,0,0,1,12.88,28.93Zm34,63.81a17.75,17.75,0,1,1-2.25-25A17.74,17.74,0,0,1,46.91,92.74ZM81.74,51a17.74,17.74,0,1,1-2.25-25A17.74,17.74,0,0,1,81.74,51Z" fill="#db7f29"/><path d="M88.78,14.54a30,30,0,0,0-33.53-3.3,29.41,29.41,0,0,0-8.1,6.48c-.19.19-.37.41-.55.63a28.72,28.72,0,0,0-2.48,3.44,23.37,23.37,0,0,0-3.63-3.9l-.26-.23A23.62,23.62,0,1,0,10,53.94,23.17,23.17,0,0,0,14.72,57a31.63,31.63,0,0,0-3,3A30,30,0,0,0,7.4,91.46,29.51,29.51,0,0,0,15.24,102c.1.1.21.19.33.29a30,30,0,0,0,46.27-35.8A30,30,0,0,0,88.78,14.54Zm-72.66,32A14,14,0,0,1,28.21,22.16a14,14,0,0,1,9,6.64A14,14,0,0,1,16.12,46.54Zm32.27,44.1a17.76,17.76,0,0,1-18.68,5.64,17.2,17.2,0,0,1-5.36-2.65c-.33-.23-.65-.48-1-.74a17.77,17.77,0,0,1,3.43-29.5A18.05,18.05,0,0,1,34,61.54a17.75,17.75,0,0,1,14.4,29.1ZM83.21,48.92a17.75,17.75,0,1,1-2.25-25A17.74,17.74,0,0,1,83.21,48.92Z" fill="#f8ab1f"/><path d="M31.35,48.33,26.82,63.39a17.79,17.79,0,0,0-7.43,24.76L15.24,102A29.51,29.51,0,0,1,7.4,91.46L20.18,48.91A14.05,14.05,0,0,0,31.35,48.33Z" fill="#ffe275"/><path d="M40.49,17.89,37.21,28.8a14,14,0,0,0-9-6.64L31,12.92a23.68,23.68,0,0,1,9.24,4.74Z" fill="#ffe275"/><path d="M29.71,96.28,26.2,108a29.81,29.81,0,0,1-5.48-2.25l3.63-12.11A17.2,17.2,0,0,0,29.71,96.28Z" fill="#ffe275"/><path d="M55.25,11.24,39.92,62.29A17.59,17.59,0,0,0,34,61.54L47.15,17.72A29.41,29.41,0,0,1,55.25,11.24Z" fill="#ffe275"/></svg>