<svg id="Calque_1" data-name="Calque 1" xmlns="http://www.w3.org/2000/svg" viewBox="0 0 218.7 221.91"><title>desk-key</title><circle cx="109.35" cy="110.96" r="109.35" transform="translate(-46.43 109.82) rotate(-45)" fill="#4153a0"/><path d="M205.25,192l-26,27.53a7.53,7.53,0,1,1-10.94-10.34l10.84-11.48a6.82,6.82,0,0,0-.17-9.53l-.11-.1a6.79,6.79,0,0,0-9.47.14l-.15.14-10.84,11.48a7.53,7.53,0,0,1-10.64.3h0a7.47,7.47,0,0,1-2.21-4,7.13,7.13,0,0,1-.11-2.21,7.44,7.44,0,0,1,2-4.42l26-27.53Z" fill="#f8ab1f"/><polygon points="190.63 178.22 148.73 188.17 155.19 181.33 186.15 173.99 190.63 178.22" fill="#ffe275"/><path d="M145.44,193.94l24-5.69-.15.14-2.59,2.75-21.11,5A7.13,7.13,0,0,1,145.44,193.94Z" fill="#ffe275"/><path d="M196.75,184,179,188.21l-.11-.1a6.75,6.75,0,0,0-2.53-1.51l18.51-4.39Z" fill="#ffe275"/><path d="M148.83,199h0a7.52,7.52,0,0,1-.3-10.64l-1.06,1.13a7.51,7.51,0,0,0,.3,10.64h0a7.53,7.53,0,0,0,10.64-.3l1.06-1.13A7.52,7.52,0,0,1,148.83,199Z" fill="#db7f29"/><path d="M180.21,196.62a6.81,6.81,0,0,0-.27-9.63h0a6.8,6.8,0,0,0-9.62.28l-1.06,1.12a6.81,6.81,0,0,1,9.62-.28h0a6.81,6.81,0,0,1,.27,9.62Z" fill="#db7f29"/><path d="M169.67,218.73a7.53,7.53,0,0,1-.3-10.64l-1.06,1.13a7.53,7.53,0,1,0,10.94,10.34l1.06-1.13A7.52,7.52,0,0,1,169.67,218.73Z" fill="#db7f29"/><path d="M70.27,57c.1-.14.21-.28.3-.43a47.36,47.36,0,0,0,4.77-8.79,41.71,41.71,0,0,0,3.24-17.7c0-.85-.1-1.7-.19-2.54a34,34,0,0,0-1.81-7.73,30.28,30.28,0,0,0-2.52-5.26,29.47,29.47,0,0,0-5-6.24C55.05-4.93,30.83-2,14.94,14.79a50.49,50.49,0,0,0-5.47,6.9,48.58,48.58,0,0,0-3.31,5.9,45,45,0,0,0-3,8.27c-.22.87-.41,1.74-.56,2.61a37.06,37.06,0,0,0,.71,17.26A30.57,30.57,0,0,0,6.92,63.6a29.37,29.37,0,0,0,4.6,5.58C23.7,80.68,43.61,80,59.05,68.53a50,50,0,0,0,6.58-5.85A49.24,49.24,0,0,0,70.27,57ZM21.1,62a17.6,17.6,0,0,1-2.34-2.09,17.37,17.37,0,0,1-3.52-5.53,15.84,15.84,0,0,1,2.1-15.86,15.3,15.3,0,0,1,1.86-1.91,15,15,0,0,1,6.54-3.28c.19,0,.39-.08.58-.11A9.42,9.42,0,0,0,34,25.1l.09-.61a15,15,0,0,1,4.7-8.65c5.77-5.26,15-5.16,21.43.2l0,0a17.75,17.75,0,0,1,4.17,5.08,16.91,16.91,0,0,1,2.13,7.69,15.75,15.75,0,0,1-.12,2.57A14.9,14.9,0,0,1,54.38,44.19a9.65,9.65,0,0,0-7.5,6.71,12,12,0,0,0-.34,1.6,15,15,0,0,1-2.85,7,13.39,13.39,0,0,1-1.1,1.31C37.06,66.68,27.81,67.07,21.1,62Z" fill="#f8ab1f"/><path d="M34.1,24.49,6.16,27.59a48.58,48.58,0,0,1,3.31-5.9l26.88-3A14.61,14.61,0,0,0,34.1,24.49Z" fill="#ffe275"/><path d="M76.58,19.79,64.43,21.14a17.75,17.75,0,0,0-4.17-5.08l13.8-1.53A30.28,30.28,0,0,1,76.58,19.79Z" fill="#ffe275"/><path d="M21.1,62,6.92,63.6a30.57,30.57,0,0,1-3.57-7.87l11.89-1.32a17.37,17.37,0,0,0,3.52,5.53A17.6,17.6,0,0,0,21.1,62Z" fill="#ffe275"/><path d="M70.57,56.55l-26.88,3a15,15,0,0,0,2.85-7,12,12,0,0,1,.34-1.6l28.46-3.14A47.36,47.36,0,0,1,70.57,56.55Z" fill="#ffe275"/><path d="M25.74,33.36a15,15,0,0,0-6.54,3.28L2.64,38.47c.15-.87.34-1.74.56-2.61Z" fill="#ffe275"/><path d="M78.58,30.06,66.44,31.4a15.75,15.75,0,0,0,.12-2.57l11.83-1.31C78.48,28.36,78.55,29.21,78.58,30.06Z" fill="#ffe275"/><path d="M32.11,29.73a9.64,9.64,0,0,1-4.52,2.17,14.84,14.84,0,0,0-8.86,5.18,14.83,14.83,0,0,1,7.59-3.83A9.49,9.49,0,0,0,32.11,29.73Z" fill="#c56128"/><path d="M47.81,51.15a9.92,9.92,0,0,1,2-4.73,9.67,9.67,0,0,0-3.24,6.08,15,15,0,0,1-3.37,7.67c.24-.22.47-.45.7-.69A15,15,0,0,0,47.81,51.15Z" fill="#c56128"/><path d="M61.51,14.69c-6.4-5.36-15.66-5.46-21.43-.2A14.88,14.88,0,0,0,38.68,16l.12-.12c5.77-5.26,15-5.16,21.43.2,7.24,6.08,8.37,16.39,2.89,23,.22-.2.43-.4.63-.62C70,31.87,69,21,61.51,14.69Z" fill="#c56128"/><path d="M60.32,67.18C44.89,78.63,25,79.33,12.8,67.83-1,54.78.3,30.91,15.59,14.13c-.21.22-.44.43-.65.66C-.95,31.6-2.47,56,11.52,69.18,23.7,80.68,43.61,80,59.05,68.53a50,50,0,0,0,6.58-5.85l.68-.75A49.06,49.06,0,0,1,60.32,67.18Z" fill="#c56128"/><path d="M65.63,62.68a50,50,0,0,1-6.58,5.85l-6.19-5.85a8.06,8.06,0,0,1-.33-11.38h0A8,8,0,0,1,63.91,51l6.36,6A49.24,49.24,0,0,1,65.63,62.68Z" fill="#c56128"/><rect x="180.39" y="159.01" width="10.63" height="43.74" transform="translate(-73.31 191.65) rotate(-46.63)" fill="#c56128"/><path d="M204.57,203.73,54,61.48a7.24,7.24,0,0,1-.29-10.21h0A7.22,7.22,0,0,1,63.91,51L214.48,193.23a7.22,7.22,0,0,1,.29,10.21h0A7.21,7.21,0,0,1,204.57,203.73Z" fill="#f8ab1f"/><path d="M209.66,205.71a7.25,7.25,0,0,1-5.1-2L54,61.48a7.25,7.25,0,0,1-2.26-5,7.2,7.2,0,0,1,5.09,2L207.4,200.73A7.31,7.31,0,0,1,209.66,205.71Z" fill="#db7f29"/><path d="M209.66,205.71a7.25,7.25,0,0,1-5.1-2L54,61.48a7.25,7.25,0,0,1-2.26-5,7.2,7.2,0,0,1,5.09,2L207.4,200.73A7.31,7.31,0,0,1,209.66,205.71Z" fill="#db7f29"/><path d="M213.79,202.51,54.69,52.2a1.37,1.37,0,0,1-.06-1.92h0a1.37,1.37,0,0,1,1.92-.05l159.1,150.31a1.37,1.37,0,0,1,0,1.92h0A1.36,1.36,0,0,1,213.79,202.51Z" fill="#ffe275"/><path d="M168.77,145.78a4.56,4.56,0,0,0-6.42.19l-7.93,8.4a4.54,4.54,0,0,0,6.6,6.23l7.93-8.4A4.57,4.57,0,0,0,168.77,145.78Z" fill="#f8ab1f"/><path d="M158.14,157a4.55,4.55,0,0,1-.18-6.42l-3.54,3.75a4.54,4.54,0,0,0,6.6,6.23l3.53-3.75A4.54,4.54,0,0,1,158.14,157Z" fill="#db7f29"/><path d="M166.4,154.9,165,156.4a4.54,4.54,0,1,0-6.6-6.23l1.42-1.5a4.54,4.54,0,1,1,6.6,6.23Z" fill="#ffe275"/><path d="M158.14,157a4.55,4.55,0,0,1-.18-6.42l-3.54,3.75a4.54,4.54,0,0,0,6.6,6.23l3.53-3.75A4.54,4.54,0,0,1,158.14,157Z" fill="#db7f29"/></svg>