<?xml version="1.0" encoding="UTF-8" ?>
<!DOCTYPE svg PUBLIC "-//W3C//DTD SVG 1.1//EN" "http://www.w3.org/Graphics/SVG/1.1/DTD/svg11.dtd">
<svg width="173px" height="228px" viewBox="0 0 173 228" version="1.1" xmlns="http://www.w3.org/2000/svg">
<path fill="#ea641d" stroke="#ea641d" stroke-width="0.09375" opacity="1.00" d=" M 66.85 5.81 C 69.12 2.64 73.28 1.77 76.92 1.37 C 87.90 0.55 98.90 2.93 109.14 6.75 C 113.04 8.35 117.19 9.94 120.07 13.16 C 120.42 16.57 122.15 19.79 121.22 23.28 C 121.17 21.92 121.10 20.56 121.03 19.20 C 118.27 20.72 115.38 21.98 112.43 23.07 C 107.51 23.00 102.57 23.13 97.66 22.63 C 103.12 19.60 108.26 15.93 111.89 10.76 C 108.51 7.05 103.30 6.43 98.73 5.12 C 90.33 3.20 81.36 1.26 72.87 3.73 C 69.09 4.63 66.42 9.05 68.46 12.65 C 70.49 15.74 74.13 17.21 77.13 19.18 C 72.41 18.93 68.83 15.76 65.64 12.61 C 65.59 10.30 65.35 7.76 66.85 5.81 Z" />
<path fill="#ea641d" stroke="#ea641d" stroke-width="0.09375" opacity="1.00" d=" M 128.41 12.27 C 142.95 8.36 157.44 4.23 172.06 0.61 C 172.16 8.39 171.12 16.12 170.98 23.89 C 158.90 24.03 146.82 24.50 134.74 23.99 C 139.88 21.57 145.43 20.08 150.41 17.33 C 151.21 16.66 152.71 16.23 152.67 14.98 C 153.18 13.31 151.08 13.23 150.03 12.98 C 142.86 12.00 135.60 13.12 128.41 12.27 Z" />
<path fill="#e0321d" stroke="#e0321d" stroke-width="0.09375" opacity="1.00" d=" M 172.06 0.61 L 173.00 0.41 L 173.00 32.46 C 172.46 51.89 171.31 71.33 168.70 90.59 C 168.00 80.10 169.03 69.58 168.95 59.07 C 168.99 56.60 169.11 54.12 169.38 51.66 C 170.51 42.78 170.37 33.80 170.95 24.87 L 170.98 23.89 C 171.12 16.12 172.16 8.39 172.06 0.61 Z" />
<path fill="#e0321d" stroke="#e0321d" stroke-width="0.09375" opacity="1.00" d=" M 72.87 3.73 C 81.36 1.26 90.33 3.20 98.73 5.12 C 103.30 6.43 108.51 7.05 111.89 10.76 C 108.26 15.93 103.12 19.60 97.66 22.63 C 90.69 22.37 83.77 21.35 77.13 19.18 C 74.13 17.21 70.49 15.74 68.46 12.65 C 66.42 9.05 69.09 4.63 72.87 3.73 Z" />
<path fill="#fcc124" stroke="#fcc124" stroke-width="0.09375" opacity="1.00" d=" M 65.64 12.61 C 68.83 15.76 72.41 18.93 77.13 19.18 C 83.77 21.35 90.69 22.37 97.66 22.63 C 102.57 23.13 107.51 23.00 112.43 23.07 C 106.20 28.03 97.79 26.24 90.44 26.28 C 92.55 27.92 93.87 30.26 93.70 32.99 C 94.05 49.61 94.53 66.30 92.82 82.86 C 99.12 83.69 105.25 82.04 111.29 80.52 L 111.10 81.98 C 98.70 87.95 83.78 87.32 71.68 80.91 C 71.95 81.24 72.50 81.91 72.77 82.25 C 71.98 83.35 71.22 84.53 71.23 85.95 C 70.35 95.27 70.75 104.65 70.69 113.99 C 70.74 121.19 70.52 128.44 71.67 135.58 C 73.06 135.19 74.65 134.74 75.20 133.23 C 78.22 127.25 79.33 120.52 80.09 113.93 C 80.96 103.78 80.67 92.32 74.14 83.92 C 79.54 84.94 84.50 87.69 90.04 88.05 C 95.19 88.53 100.40 88.26 105.51 87.45 C 101.39 91.98 94.62 90.05 89.21 90.34 C 89.87 106.21 89.62 122.11 89.41 137.98 C 88.42 146.30 88.71 154.68 88.58 163.04 C 88.49 165.09 89.16 167.05 89.80 168.97 C 85.68 169.13 81.52 168.76 77.52 167.73 C 74.14 159.32 72.08 150.43 71.43 141.39 C 70.58 149.52 70.87 157.81 72.28 165.86 C 64.89 170.66 57.55 175.75 51.61 182.33 C 49.46 184.86 46.70 187.44 46.55 190.99 C 46.74 194.67 49.40 198.19 53.02 199.13 C 59.42 200.98 66.14 201.03 72.75 201.35 C 79.77 201.89 86.82 201.53 93.86 201.70 C 91.84 203.10 89.47 203.49 87.06 203.49 C 89.74 204.52 94.06 204.67 94.48 208.25 C 95.29 213.67 95.64 219.20 95.16 224.67 C 89.12 225.65 83.01 225.97 76.91 226.23 C 75.18 226.24 73.52 226.74 72.02 227.58 C 56.81 227.08 41.46 225.82 26.82 221.44 C 19.65 219.21 12.45 216.27 6.80 211.18 C 2.61 207.40 -0.22 201.81 0.34 196.08 C 1.65 187.27 2.43 178.33 4.96 169.77 C 6.23 165.09 9.35 161.26 12.36 157.58 C 12.56 161.57 12.84 165.57 12.92 169.57 C 12.71 170.53 12.51 171.50 12.31 172.47 C 17.90 175.49 24.56 174.35 30.24 172.21 C 35.31 170.14 40.28 166.79 42.59 161.64 C 44.59 157.11 43.68 151.70 40.88 147.71 C 40.44 147.75 39.56 147.84 39.12 147.89 C 48.08 141.94 57.72 137.12 67.30 132.27 C 68.57 131.49 70.39 130.72 70.33 128.94 C 70.75 123.85 70.42 118.73 70.22 113.64 C 69.62 102.73 70.47 91.79 69.69 80.88 C 69.74 79.08 67.60 78.54 66.52 77.49 C 65.77 70.00 66.19 62.47 65.85 54.96 C 65.32 40.84 66.49 26.72 65.64 12.61 M 67.94 18.51 C 66.74 25.24 66.89 32.24 68.09 38.96 C 69.33 38.70 70.73 38.55 71.29 37.20 C 73.67 33.44 75.76 28.90 74.55 24.37 C 73.77 21.35 71.60 17.63 67.94 18.51 M 4.12 184.98 C 7.26 180.21 8.74 174.40 10.76 169.04 C 11.90 166.96 8.97 167.12 7.83 166.75 C 4.97 172.24 2.55 178.93 4.12 184.98 Z" />
<path fill="#e0321d" stroke="#e0321d" stroke-width="0.09375" opacity="1.00" d=" M 120.07 13.16 C 122.70 14.81 125.67 12.58 128.41 12.27 C 135.60 13.12 142.86 12.00 150.03 12.98 C 151.08 13.23 153.18 13.31 152.67 14.98 C 152.71 16.23 151.21 16.66 150.41 17.33 C 145.43 20.08 139.88 21.57 134.74 23.99 L 133.71 24.02 C 129.52 24.14 125.33 24.14 121.14 24.16 L 121.22 23.28 C 122.15 19.79 120.42 16.57 120.07 13.16 Z" />
<path fill="#ffffff" stroke="#ffffff" stroke-width="0.09375" opacity="1.00" d=" M 67.94 18.51 C 71.60 17.63 73.77 21.35 74.55 24.37 C 75.76 28.90 73.67 33.44 71.29 37.20 C 70.73 38.55 69.33 38.70 68.09 38.96 C 66.89 32.24 66.74 25.24 67.94 18.51 Z" />
<path fill="#f5a01f" stroke="#f5a01f" stroke-width="0.09375" opacity="1.00" d=" M 112.43 23.07 C 115.38 21.98 118.27 20.72 121.03 19.20 C 121.10 20.56 121.17 21.92 121.22 23.28 L 121.14 24.16 C 119.71 42.32 117.67 60.44 116.60 78.63 C 115.42 79.47 114.24 80.31 113.02 81.08 C 112.54 81.31 111.58 81.76 111.10 81.98 L 111.29 80.52 C 105.25 82.04 99.12 83.69 92.82 82.86 C 94.53 66.30 94.05 49.61 93.70 32.99 C 93.87 30.26 92.55 27.92 90.44 26.28 C 97.79 26.24 106.20 28.03 112.43 23.07 Z" />
<path fill="#ea641d" stroke="#ea641d" stroke-width="0.09375" opacity="1.00" d=" M 121.14 24.16 C 125.33 24.14 129.52 24.14 133.71 24.02 C 130.93 26.56 130.56 30.43 129.72 33.88 C 126.28 48.96 123.18 64.11 120.05 79.25 C 118.90 79.02 117.76 78.81 116.60 78.63 C 117.67 60.44 119.71 42.32 121.14 24.16 Z" />
<path fill="#f5a01f" stroke="#f5a01f" stroke-width="0.09375" opacity="1.00" d=" M 133.71 24.02 L 134.74 23.99 C 146.82 24.50 158.90 24.03 170.98 23.89 L 170.95 24.87 C 160.96 25.25 150.96 25.11 140.97 25.21 C 138.41 25.31 135.72 25.25 133.36 26.38 C 131.31 31.21 132.17 36.62 132.28 41.71 C 139.22 45.52 147.16 46.52 154.41 49.47 C 152.66 49.24 150.91 49.06 149.16 48.92 C 144.91 48.47 140.66 48.03 136.44 47.41 C 136.17 51.87 135.96 56.33 135.90 60.80 C 138.36 60.12 140.83 59.48 143.27 58.72 C 138.20 64.19 131.29 67.88 127.44 74.46 C 126.13 76.27 126.43 78.59 126.31 80.69 C 124.23 80.20 122.15 79.67 120.05 79.25 C 123.18 64.11 126.28 48.96 129.72 33.88 C 130.56 30.43 130.93 26.56 133.71 24.02 Z" />
<path fill="#fcc124" stroke="#fcc124" stroke-width="0.09375" opacity="1.00" d=" M 133.36 26.38 C 135.72 25.25 138.41 25.31 140.97 25.21 C 150.96 25.11 160.96 25.25 170.95 24.87 C 170.37 33.80 170.51 42.78 169.38 51.66 C 167.18 51.28 164.96 50.95 162.74 50.70 C 159.95 50.40 157.16 50.03 154.41 49.47 C 147.16 46.52 139.22 45.52 132.28 41.71 C 132.17 36.62 131.31 31.21 133.36 26.38 Z" />
<path fill="#ea641d" stroke="#ea641d" stroke-width="0.09375" opacity="1.00" d=" M 136.44 47.41 C 140.66 48.03 144.91 48.47 149.16 48.92 C 148.35 48.94 146.72 48.99 145.90 49.01 C 145.16 51.82 144.45 55.04 146.71 57.37 C 145.55 57.78 144.41 58.25 143.27 58.72 C 140.83 59.48 138.36 60.12 135.90 60.80 C 135.96 56.33 136.17 51.87 136.44 47.41 Z" />
<path fill="#e0321d" stroke="#e0321d" stroke-width="0.09375" opacity="1.00" d=" M 145.90 49.01 C 146.72 48.99 148.35 48.94 149.16 48.92 C 150.91 49.06 152.66 49.24 154.41 49.47 C 157.16 50.03 159.95 50.40 162.74 50.70 C 158.54 53.23 153.86 54.83 149.70 57.43 C 148.95 57.41 147.46 57.39 146.71 57.37 C 144.45 55.04 145.16 51.82 145.90 49.01 Z" />
<path fill="#ea641d" stroke="#ea641d" stroke-width="0.09375" opacity="1.00" d=" M 162.74 50.70 C 164.96 50.95 167.18 51.28 169.38 51.66 C 169.11 54.12 168.99 56.60 168.95 59.07 C 162.54 58.46 156.07 58.45 149.70 57.43 C 153.86 54.83 158.54 53.23 162.74 50.70 Z" />
<path fill="#fcc124" stroke="#fcc124" stroke-width="0.09375" opacity="1.00" d=" M 146.71 57.37 C 147.46 57.39 148.95 57.41 149.70 57.43 C 156.07 58.45 162.54 58.46 168.95 59.07 C 169.03 69.58 168.00 80.10 168.70 90.59 C 163.60 89.53 158.53 88.31 153.44 87.22 C 154.18 86.52 156.81 85.83 155.64 84.40 C 154.09 81.36 150.46 80.53 147.42 79.82 C 143.76 79.21 139.49 78.38 136.35 80.92 C 138.90 82.56 141.59 83.99 144.40 85.14 C 138.31 83.87 132.36 82.10 126.31 80.69 C 126.43 78.59 126.13 76.27 127.44 74.46 C 131.29 67.88 138.20 64.19 143.27 58.72 C 144.41 58.25 145.55 57.78 146.71 57.37 Z" />
<path fill="#ffffff" stroke="#ffffff" stroke-width="0.09375" opacity="1.00" d=" M 136.35 80.92 C 139.49 78.38 143.76 79.21 147.42 79.82 C 150.46 80.53 154.09 81.36 155.64 84.40 C 156.81 85.83 154.18 86.52 153.44 87.22 C 150.40 86.64 147.39 85.93 144.40 85.14 C 141.59 83.99 138.90 82.56 136.35 80.92 Z" />
<path fill="#e0321d" stroke="#e0321d" stroke-width="0.09375" opacity="1.00" d=" M 71.68 80.91 C 83.78 87.32 98.70 87.95 111.10 81.98 C 111.58 81.76 112.54 81.31 113.02 81.08 C 112.99 82.64 112.97 84.20 112.91 85.75 C 110.95 86.18 109.00 86.62 107.06 87.08 C 106.67 87.17 105.89 87.35 105.51 87.45 C 100.40 88.26 95.19 88.53 90.04 88.05 C 84.50 87.69 79.54 84.94 74.14 83.92 C 73.80 83.50 73.11 82.67 72.77 82.25 C 72.50 81.91 71.95 81.24 71.68 80.91 Z" />
<path fill="#ffffff" stroke="#ffffff" stroke-width="0.09375" opacity="1.00" d=" M 71.23 85.95 C 71.22 84.53 71.98 83.35 72.77 82.25 C 73.11 82.67 73.80 83.50 74.14 83.92 C 80.67 92.32 80.96 103.78 80.09 113.93 C 79.33 120.52 78.22 127.25 75.20 133.23 C 74.65 134.74 73.06 135.19 71.67 135.58 C 70.52 128.44 70.74 121.19 70.69 113.99 C 70.75 104.65 70.35 95.27 71.23 85.95 Z" />
<path fill="#ea641d" stroke="#ea641d" stroke-width="0.09375" opacity="1.00" d=" M 107.06 87.08 C 109.00 86.62 110.95 86.18 112.91 85.75 C 112.39 94.36 111.92 102.97 111.41 111.57 C 111.08 114.44 110.65 117.30 110.37 120.18 C 110.35 110.44 110.58 100.68 110.33 90.94 C 110.61 88.82 108.52 88.00 107.06 87.08 Z" />
<path fill="#f5a01f" stroke="#f5a01f" stroke-width="0.09375" opacity="1.00" d=" M 105.51 87.45 C 105.89 87.35 106.67 87.17 107.06 87.08 C 108.52 88.00 110.61 88.82 110.33 90.94 C 110.58 100.68 110.35 110.44 110.37 120.18 C 110.26 122.72 109.76 125.30 110.21 127.83 C 115.21 133.56 120.67 138.90 126.12 144.21 C 130.90 149.35 135.71 154.46 140.93 159.16 C 146.62 166.74 153.28 173.62 158.26 181.72 C 159.96 184.50 161.46 187.47 161.90 190.74 C 160.48 195.59 158.71 200.49 155.43 204.43 C 150.55 210.37 143.44 213.88 136.32 216.39 C 123.10 221.31 109.00 222.61 95.16 224.67 C 95.64 219.20 95.29 213.67 94.48 208.25 C 94.06 204.67 89.74 204.52 87.06 203.49 C 89.47 203.49 91.84 203.10 93.86 201.70 C 99.04 200.83 104.18 199.74 109.32 198.61 C 114.25 199.36 118.07 195.82 122.17 193.78 C 126.00 193.08 128.29 189.48 129.25 185.96 C 128.82 181.56 124.41 179.19 120.77 177.63 C 120.43 179.99 120.37 182.38 120.55 184.77 C 120.06 188.71 117.75 192.05 114.61 194.37 C 114.52 192.04 114.50 189.71 114.56 187.38 C 117.57 185.34 119.12 181.61 118.43 178.04 C 117.23 171.24 113.04 165.45 108.49 160.44 C 109.53 152.69 109.25 144.85 110.10 137.09 C 110.29 135.19 110.07 133.30 109.83 131.42 C 107.75 142.67 105.39 153.93 100.83 164.48 C 101.46 164.42 102.72 164.32 103.35 164.26 C 99.28 166.87 94.58 168.36 89.80 168.97 C 89.16 167.05 88.49 165.09 88.58 163.04 C 88.71 154.68 88.42 146.30 89.41 137.98 C 89.62 122.11 89.87 106.21 89.21 90.34 C 94.62 90.05 101.39 91.98 105.51 87.45 Z" />
<path fill="#e0321d" stroke="#e0321d" stroke-width="0.09375" opacity="1.00" d=" M 110.37 120.18 C 110.65 117.30 111.08 114.44 111.41 111.57 C 117.89 118.31 124.28 125.15 130.44 132.19 C 130.38 135.81 132.07 139.51 131.08 143.05 C 130.40 145.37 127.82 144.32 126.12 144.21 C 120.67 138.90 115.21 133.56 110.21 127.83 C 109.76 125.30 110.26 122.72 110.37 120.18 Z" />
<path fill="#e0321d" stroke="#e0321d" stroke-width="0.09375" opacity="1.00" d=" M 44.52 129.82 C 52.64 123.75 61.38 118.58 70.22 113.64 C 70.42 118.73 70.75 123.85 70.33 128.94 C 70.39 130.72 68.57 131.49 67.30 132.27 C 57.72 137.12 48.08 141.94 39.12 147.89 C 38.61 148.20 37.59 148.83 37.08 149.15 C 36.46 149.32 35.23 149.65 34.62 149.82 C 33.25 141.60 41.20 136.41 44.52 129.82 Z" />
<path fill="#ea641d" stroke="#ea641d" stroke-width="0.09375" opacity="1.00" d=" M 20.22 149.42 C 27.73 142.20 35.97 135.76 44.52 129.82 C 41.20 136.41 33.25 141.60 34.62 149.82 C 35.23 149.65 36.46 149.32 37.08 149.15 C 31.79 152.85 26.50 156.58 21.66 160.86 C 20.00 157.27 20.46 153.25 20.22 149.42 Z" />
<path fill="#e0321d" stroke="#e0321d" stroke-width="0.09375" opacity="1.00" d=" M 109.83 131.42 C 110.07 133.30 110.29 135.19 110.10 137.09 C 109.25 144.85 109.53 152.69 108.49 160.44 C 106.83 161.78 105.19 163.16 103.35 164.26 C 102.72 164.32 101.46 164.42 100.83 164.48 C 105.39 153.93 107.75 142.67 109.83 131.42 Z" />
<path fill="#ea641d" stroke="#ea641d" stroke-width="0.09375" opacity="1.00" d=" M 130.44 132.19 C 135.68 138.00 140.79 143.93 145.76 149.98 C 143.84 148.89 141.84 147.95 139.86 146.99 C 137.82 150.94 139.72 155.26 140.93 159.16 C 135.71 154.46 130.90 149.35 126.12 144.21 C 127.82 144.32 130.40 145.37 131.08 143.05 C 132.07 139.51 130.38 135.81 130.44 132.19 Z" />
<path fill="#ffffff" stroke="#ffffff" stroke-width="0.09375" opacity="1.00" d=" M 72.28 165.86 C 70.87 157.81 70.58 149.52 71.43 141.39 C 72.08 150.43 74.14 159.32 77.52 167.73 C 75.76 167.15 74.02 166.51 72.28 165.86 Z" />
<path fill="#e0321d" stroke="#e0321d" stroke-width="0.09375" opacity="1.00" d=" M 139.86 146.99 C 141.84 147.95 143.84 148.89 145.76 149.98 C 150.35 155.52 154.78 161.21 158.79 167.18 C 161.27 171.06 163.92 175.23 163.98 179.98 C 164.10 185.48 164.01 191.01 163.14 196.46 C 162.71 194.56 162.27 192.65 161.90 190.74 C 161.46 187.47 159.96 184.50 158.26 181.72 C 153.28 173.62 146.62 166.74 140.93 159.16 C 139.72 155.26 137.82 150.94 139.86 146.99 Z" />
<path fill="#ffffff" stroke="#ffffff" stroke-width="0.09375" opacity="1.00" d=" M 37.08 149.15 C 37.59 148.83 38.61 148.20 39.12 147.89 C 39.56 147.84 40.44 147.75 40.88 147.71 C 43.68 151.70 44.59 157.11 42.59 161.64 C 40.28 166.79 35.31 170.14 30.24 172.21 C 24.56 174.35 17.90 175.49 12.31 172.47 C 12.51 171.50 12.71 170.53 12.92 169.57 C 15.60 166.44 18.61 163.62 21.66 160.86 C 26.50 156.58 31.79 152.85 37.08 149.15 Z" />
<path fill="#f5a01f" stroke="#f5a01f" stroke-width="0.09375" opacity="1.00" d=" M 12.36 157.58 C 14.81 154.70 17.55 152.09 20.22 149.42 C 20.46 153.25 20.00 157.27 21.66 160.86 C 18.61 163.62 15.60 166.44 12.92 169.57 C 12.84 165.57 12.56 161.57 12.36 157.58 Z" />
<path fill="#ffffff" stroke="#ffffff" stroke-width="0.09375" opacity="1.00" d=" M 4.12 184.98 C 2.55 178.93 4.97 172.24 7.83 166.75 C 8.97 167.12 11.90 166.96 10.76 169.04 C 8.74 174.40 7.26 180.21 4.12 184.98 Z" />
<path fill="#ffffff" stroke="#ffffff" stroke-width="0.09375" opacity="1.00" d=" M 120.77 177.63 C 124.41 179.19 128.82 181.56 129.25 185.96 C 128.29 189.48 126.00 193.08 122.17 193.78 C 121.52 190.80 120.95 187.79 120.55 184.77 C 120.37 182.38 120.43 179.99 120.77 177.63 Z" />
<path fill="#e0321d" stroke="#e0321d" stroke-width="0.09375" opacity="1.00" d=" M 46.55 190.99 C 46.70 187.44 49.46 184.86 51.61 182.33 C 52.51 183.74 53.35 185.34 55.00 186.01 C 60.53 188.70 66.77 189.30 72.78 190.16 C 77.88 194.53 85.70 193.26 90.71 197.98 C 85.40 201.46 78.80 201.02 72.75 201.35 C 66.14 201.03 59.42 200.98 53.02 199.13 C 49.40 198.19 46.74 194.67 46.55 190.99 Z" />
<path fill="#fcc124" stroke="#fcc124" stroke-width="0.09375" opacity="1.00" d=" M 120.55 184.77 C 120.95 187.79 121.52 190.80 122.17 193.78 C 118.07 195.82 114.25 199.36 109.32 198.61 C 111.12 197.24 112.89 195.83 114.61 194.37 C 117.75 192.05 120.06 188.71 120.55 184.77 Z" />
<path fill="#ea641d" stroke="#ea641d" stroke-width="0.09375" opacity="1.00" d=" M 98.07 190.67 C 103.65 190.23 109.47 189.95 114.56 187.38 C 114.50 189.71 114.52 192.04 114.61 194.37 C 112.89 195.83 111.12 197.24 109.32 198.61 C 104.18 199.74 99.04 200.83 93.86 201.70 C 86.82 201.53 79.77 201.89 72.75 201.35 C 78.80 201.02 85.40 201.46 90.71 197.98 C 85.70 193.26 77.88 194.53 72.78 190.16 C 81.19 190.87 89.65 191.31 98.07 190.67 Z" />
<path fill="#ea641d" stroke="#ea641d" stroke-width="0.09375" opacity="1.00" d=" M 155.43 204.43 C 158.71 200.49 160.48 195.59 161.90 190.74 C 162.27 192.65 162.71 194.56 163.14 196.46 C 162.98 200.55 161.58 204.66 158.70 207.64 C 153.06 213.34 145.24 216.10 137.85 218.76 C 116.66 225.55 94.19 227.86 72.02 227.58 C 73.52 226.74 75.18 226.24 76.91 226.23 C 83.01 225.97 89.12 225.65 95.16 224.67 C 109.00 222.61 123.10 221.31 136.32 216.39 C 143.44 213.88 150.55 210.37 155.43 204.43 Z" />
</svg>
