<svg id="Calque_1" data-name="Calque 1" xmlns="http://www.w3.org/2000/svg" viewBox="0 0 227.5 225.83"><title>-key</title><circle cx="113.75" cy="112.91" r="109.35" transform="translate(-46.52 113.51) rotate(-45)" fill="#4153a0"/><path d="M198.2,183l-22.39,24.65a6.89,6.89,0,0,1-4.76,2.31,5.69,5.69,0,0,1-4.14-1.44l0,0a2.42,2.42,0,0,1-.32-.32,3.74,3.74,0,0,1-.27-.31l0,0a5.66,5.66,0,0,1-1.17-3.57,7,7,0,0,1,1.84-4.65l9.34-10.28a3.76,3.76,0,0,0,.25-.31,5.69,5.69,0,0,0-.16-7.69l-.08-.08a5.13,5.13,0,0,0-2.08-1.14,6.06,6.06,0,0,0-5.84,1.8.74.74,0,0,0-.12.13l-9.34,10.27c-2.46,2.71-6.44,3.1-8.89.88v0a5.54,5.54,0,0,1-1.75-3.23,6.5,6.5,0,0,1,0-1.87,7.06,7.06,0,0,1,1.79-3.83l22.4-24.66Z" fill="#f8ab1f"/><polygon points="185.85 172.72 150.61 183.51 156.18 177.38 182.21 169.42 185.85 172.72" fill="#ffe275"/><path d="M150.43,192.65h0c-2.46-2.23-2.45-6.23,0-8.94l-.92,1c-2.46,2.71-2.46,6.71,0,8.93h0c2.45,2.23,6.43,1.84,8.89-.87l.92-1C156.86,194.49,152.88,194.88,150.43,192.65Z" fill="#db7f29"/><path d="M176.69,188.8a5.74,5.74,0,0,0,0-8.08h0a5.71,5.71,0,0,0-8,.8l-.92,1a5.73,5.73,0,0,1,8-.79h0a5.72,5.72,0,0,1,0,8.08Z" fill="#db7f29"/><path d="M167.34,208a5.74,5.74,0,0,1-1.84-4.29,7,7,0,0,1,1.85-4.65l-.91,1a7,7,0,0,0-1.85,4.65,5.69,5.69,0,0,0,1.83,4.28c2.46,2.23,6.44,1.84,8.9-.87l.91-1C173.77,209.86,169.79,210.24,167.34,208Z" fill="#db7f29"/><path d="M215.11,198.32,192.71,223c-2.46,2.71-6.44,3.1-8.89.87a5.7,5.7,0,0,1-1.83-4.29,6.92,6.92,0,0,1,1.84-4.65l9.33-10.27a5.75,5.75,0,0,0,.1-8l-.09-.07a5,5,0,0,0-2.07-1.14,6.05,6.05,0,0,0-5.84,1.79l-.13.13-9.33,10.28a7,7,0,0,1-4.75,2.31,5.69,5.69,0,0,1-4.14-1.44l0,0a2.42,2.42,0,0,1-.32-.32,3.74,3.74,0,0,1-.27-.31l0,0a5.62,5.62,0,0,1-.6-1,5.9,5.9,0,0,1-.25-.63,4.26,4.26,0,0,1-.15-.54s0-.09,0-.14l-.06-.26c0-.09,0-.19,0-.29s0-.11,0-.16a6,6,0,0,1,0-1.41c0-.12.06-.24.08-.36a.29.29,0,0,1,0-.09,6.82,6.82,0,0,1,.3-1.07.49.49,0,0,0,0-.11,7.63,7.63,0,0,1,.9-1.62l.12-.15c.12-.15.22-.3.34-.43l22.39-24.66Z" fill="#f8ab1f"/><polygon points="202.75 188.08 167.52 198.87 173.08 192.74 199.12 184.78 202.75 188.08" fill="#ffe275"/><path d="M164.63,203.91l20.14-6.17-.12.13-2.24,2.46-17.75,5.44A6.1,6.1,0,0,1,164.63,203.91Z" fill="#ffe275"/><path d="M167.33,208h0c-2.45-2.23-2.44-6.22,0-8.93l-.92,1c-2.46,2.7-2.46,6.7,0,8.93h0c2.45,2.23,6.43,1.84,8.89-.87l.92-1C173.77,209.85,169.79,210.24,167.33,208Z" fill="#db7f29"/><path d="M193.6,204.16a5.74,5.74,0,0,0,0-8.08h0a5.73,5.73,0,0,0-8,.79l-.91,1a5.73,5.73,0,0,1,8-.79h0a5.72,5.72,0,0,1,0,8.08Z" fill="#db7f29"/><path d="M184.25,223.37a5.7,5.7,0,0,1-1.84-4.29,6.94,6.94,0,0,1,1.85-4.64l-.92,1a7,7,0,0,0-1.85,4.64,5.7,5.7,0,0,0,1.84,4.29c2.46,2.23,6.43,1.84,8.89-.87l.92-1C190.68,225.21,186.7,225.6,184.25,223.37Z" fill="#db7f29"/><rect x="186.38" y="153.33" width="8.81" height="57.7" transform="translate(-72.34 200.93) rotate(-47.75)" fill="#c56128"/><path d="M225.65,207.94h0a7.15,7.15,0,0,1-10.09.49L64,70.77a7.13,7.13,0,0,1-.49-10.08h0a7.13,7.13,0,0,1,10.07-.48L225.16,197.86A7.13,7.13,0,0,1,225.65,207.94Z" fill="#f8ab1f"/><path d="M220.64,210.28a7.21,7.21,0,0,1-5.08-1.85L64,70.77a7.13,7.13,0,0,1-2.33-4.87,7.21,7.21,0,0,1,5.07,1.85L218.31,205.41A7.17,7.17,0,0,1,220.64,210.28Z" fill="#db7f29"/><path d="M220.64,210.28a7.21,7.21,0,0,1-5.08-1.85L64,70.77a7.13,7.13,0,0,1-2.33-4.87,7.21,7.21,0,0,1,5.07,1.85L218.31,205.41A7.17,7.17,0,0,1,220.64,210.28Z" fill="#db7f29"/><path d="M224.66,207,64.51,61.58a1.34,1.34,0,0,1-.1-1.89h0a1.35,1.35,0,0,1,1.89-.09L226.46,205.06a1.35,1.35,0,0,1,.09,1.89h0A1.34,1.34,0,0,1,224.66,207Z" fill="#ffe275"/><path d="M165,139.06a4.5,4.5,0,0,0-6.33.3L151,147.82a4.48,4.48,0,1,0,6.64,6l7.68-8.45A4.5,4.5,0,0,0,165,139.06Z" fill="#f8ab1f"/><path d="M162.81,148.11l-1.37,1.51a4.48,4.48,0,0,0-6.64-6l1.37-1.51a4.48,4.48,0,0,1,6.64,6Z" fill="#ffe275"/><path d="M154.69,150.38a4.49,4.49,0,0,1-.31-6.33L151,147.82a4.48,4.48,0,1,0,6.64,6l3.42-3.77A4.49,4.49,0,0,1,154.69,150.38Z" fill="#db7f29"/><path d="M78.79,64.92l-5.2-4.72a7.13,7.13,0,0,0-10.07.48h0A7.13,7.13,0,0,0,64,70.77l5.21,4.74a49.68,49.68,0,0,0,9.58-10.59Z" fill="#db7f29"/><path d="M43.3,28.05c0-.31-.1-.61-.17-.91s-.15-.62-.23-.92l-4,.51a10.14,10.14,0,0,1,.38,1.3c0,.22.08.44.11.66A7.6,7.6,0,0,1,39.5,30l3.94-.51A14.81,14.81,0,0,0,43.3,28.05Zm0,0c0-.31-.1-.61-.17-.91s-.15-.62-.23-.92l-4,.51a10.14,10.14,0,0,1,.38,1.3c0,.22.08.44.11.66A7.6,7.6,0,0,1,39.5,30l3.94-.51A14.81,14.81,0,0,0,43.3,28.05ZM48.85,66.2a16.76,16.76,0,0,0,8.42-1.08ZM43.3,28.05c0-.31-.1-.61-.17-.91s-.15-.62-.23-.92l-4,.51a10.14,10.14,0,0,1,.38,1.3c0,.22.08.44.11.66A7.6,7.6,0,0,1,39.5,30l3.94-.51A14.81,14.81,0,0,0,43.3,28.05ZM48.85,66.2a16.76,16.76,0,0,0,8.42-1.08Zm-29-36.61a3,3,0,0,1,.05-.43l-4,.51A13.08,13.08,0,0,0,16.15,33l3.92-.5A10,10,0,0,1,19.88,29.59ZM43.3,28.05c0-.31-.1-.61-.17-.91s-.15-.62-.23-.92l-4,.51a10.14,10.14,0,0,1,.38,1.3c0,.22.08.44.11.66A7.6,7.6,0,0,1,39.5,30l3.94-.51A14.81,14.81,0,0,0,43.3,28.05ZM48.85,66.2a16.76,16.76,0,0,0,8.42-1.08Zm-29-36.61a3,3,0,0,1,.05-.43l-4,.51A13.08,13.08,0,0,0,16.15,33l3.92-.5A10,10,0,0,1,19.88,29.59ZM43.3,28.05c0-.31-.1-.61-.17-.91s-.15-.62-.23-.92l-4,.51a10.14,10.14,0,0,1,.38,1.3c0,.22.08.44.11.66A7.6,7.6,0,0,1,39.5,30l3.94-.51A14.81,14.81,0,0,0,43.3,28.05ZM48.85,66.2a16.76,16.76,0,0,0,8.42-1.08Zm-29-36.61a3,3,0,0,1,.05-.43l-4,.51A13.08,13.08,0,0,0,16.15,33l3.92-.5A10,10,0,0,1,19.88,29.59ZM43.3,28.05c0-.31-.1-.61-.17-.91s-.15-.62-.23-.92l-4,.51a10.14,10.14,0,0,1,.38,1.3c0,.22.08.44.11.66A7.6,7.6,0,0,1,39.5,30l3.94-.51A14.81,14.81,0,0,0,43.3,28.05ZM48.85,66.2a16.76,16.76,0,0,0,8.42-1.08Zm-29-36.61a3,3,0,0,1,.05-.43l-4,.51A13.08,13.08,0,0,0,16.15,33l3.92-.5A10,10,0,0,1,19.88,29.59ZM43.3,28.05c0-.31-.1-.61-.17-.91s-.15-.62-.23-.92l-4,.51a10.14,10.14,0,0,1,.38,1.3c0,.22.08.44.11.66A7.6,7.6,0,0,1,39.5,30l3.94-.51A14.81,14.81,0,0,0,43.3,28.05ZM67.52,47.24c0-.37-.12-.74-.2-1.1a16.2,16.2,0,0,0-1.13-3.36,15.77,15.77,0,0,0-3.78-5.14,16.37,16.37,0,0,0-20.58-1,13.78,13.78,0,0,0,1-2.25c0-.05,0-.09,0-.14h0a13.94,13.94,0,0,0,.61-4.66L39.5,30A9.87,9.87,0,0,1,39,33.18a10.4,10.4,0,0,1-.67,1.58h0l-.34.59-.06.1a11.61,11.61,0,0,1-1.06,1.39,10.22,10.22,0,0,1-1.56,1.39A9.8,9.8,0,0,1,23,37.62a9.53,9.53,0,0,1-.77-.79,7.94,7.94,0,0,1-.58-.72A9.59,9.59,0,0,1,20.52,34a9.94,9.94,0,0,1-.45-1.5l-3.92.5a12.55,12.55,0,0,0,.71,2.5,13.5,13.5,0,0,0,.92,1.87,11.59,11.59,0,0,0,.68,1,12.91,12.91,0,0,0,1.88,2.11,13.72,13.72,0,0,0,16.78,1.21A16.64,16.64,0,0,0,36,44.17,17,17,0,0,0,35,47.63c-.06.37-.1.74-.13,1.11a16.5,16.5,0,0,0,.85,6.79l4.82-.62c-.08-.18-.16-.36-.22-.54a11.84,11.84,0,0,1-.78-5.3,6.39,6.39,0,0,1,.1-.78,11.19,11.19,0,0,1,.65-2.48,11.6,11.6,0,0,1,.84-1.74,11.86,11.86,0,0,1,18.06-2.93,11.07,11.07,0,0,1,1.75,2,10.94,10.94,0,0,1,1,1.66,11.5,11.5,0,0,1,.81,2.4c.06.27.1.52.14.78a11.85,11.85,0,0,1-.11,4.07l4.82-.62A16.39,16.39,0,0,0,67.52,47.24Zm8.14,15.52h0a3.23,3.23,0,0,0,.27-.44,38.35,38.35,0,0,0,2.54-4.77h0a43.39,43.39,0,0,0,1.65-4.31.94.94,0,0,0,0-.09,34.61,34.61,0,0,0,.93-3.42,41.18,41.18,0,0,0,.58-15.24c-.13-.91-.29-1.82-.49-2.73s-.38-1.61-.6-2.4A40.51,40.51,0,0,0,79.06,25c-.22-.55-.46-1.1-.71-1.64s-.5-1-.77-1.56A39.5,39.5,0,0,0,75,17.51c-.61-.89-1.25-1.76-2-2.61a39.52,39.52,0,0,0-4.19-4.42C52.22-4.66,26.24-3.23,10.87,13.7a42.54,42.54,0,0,0-5.17,7c-.59,1-1.13,2-1.62,3s-.92,2-1.31,3.06a38.16,38.16,0,0,0-1.5,4.73C1,32.7.73,33.86.54,35c0,.15-.05.3-.07.45-.14.91-.25,1.83-.32,2.76Q.09,39,.06,39.68A40.9,40.9,0,0,0,2.85,56.79c.38,1,.78,1.88,1.24,2.8s1.06,2.08,1.67,3.08,1.18,1.89,1.84,2.8c.26.35.52.71.8,1.06a38.79,38.79,0,0,0,3.89,4.35c.3.3.62.6.94.89a41,41,0,0,0,51.53,2.59,42.27,42.27,0,0,0,6.49-5.82A40.92,40.92,0,0,0,75.66,62.76ZM61.24,56l-.08.13a11.62,11.62,0,0,1-1.26,1.65,12.22,12.22,0,0,1-3.44,2.63h0a11.76,11.76,0,0,1-7.87,1,11.51,11.51,0,0,1-5.27-2.72,9.39,9.39,0,0,1-.7-.71,9.3,9.3,0,0,1-.9-1.09,10.84,10.84,0,0,1-1.14-1.94c-.08-.18-.16-.36-.22-.54a11.84,11.84,0,0,1-.78-5.3,6.39,6.39,0,0,1,.1-.78,11.19,11.19,0,0,1,.65-2.48,11.6,11.6,0,0,1,.84-1.74,11.86,11.86,0,0,1,18.06-2.93,11.07,11.07,0,0,1,1.75,2,10.94,10.94,0,0,1,1,1.66,11.5,11.5,0,0,1,.81,2.4c.06.27.1.52.14.78a11.85,11.85,0,0,1-.11,4.07q-.14.66-.33,1.29a10.78,10.78,0,0,1-1,2.17A3.62,3.62,0,0,1,61.24,56Zm-3.31-39.1a28.72,28.72,0,0,1,6.8,6.56q.31.42.6.84a24.61,24.61,0,0,1,1.4,2.29c.35.61.67,1.24,1,1.87a26,26,0,0,1,1,2.46,28.58,28.58,0,0,1,1,3.55c.14.65.25,1.29.35,1.95A29.62,29.62,0,0,1,69,49.77c-.17.52-.35,1-.57,1.56A25.53,25.53,0,0,1,67,54.49a15.58,15.58,0,0,0,.62-3.05,16.39,16.39,0,0,0-.07-4.2c0-.37-.12-.74-.2-1.1a16.2,16.2,0,0,0-1.13-3.36,15.77,15.77,0,0,0-3.78-5.14,16.37,16.37,0,0,0-20.58-1,13.78,13.78,0,0,0,1-2.25c0-.05,0-.09,0-.14h0a13.94,13.94,0,0,0,.61-4.66,14.81,14.81,0,0,0-.14-1.48c0-.31-.1-.61-.17-.91s-.15-.62-.23-.92a16.27,16.27,0,0,0-.72-1.91,13.86,13.86,0,0,0-1.11-1.94A13.12,13.12,0,0,0,39,20c-.24-.22-.49-.43-.74-.63a13.74,13.74,0,0,0-15.6-.85A29.34,29.34,0,0,1,57.93,16.85ZM30,20.44a9.58,9.58,0,0,1,6.38,2.5,10.13,10.13,0,0,1,1.48,1.68A11.27,11.27,0,0,1,38.61,26c.11.23.2.48.3.72a10.14,10.14,0,0,1,.38,1.3c0,.22.08.44.11.66A7.6,7.6,0,0,1,39.5,30,9.87,9.87,0,0,1,39,33.18a10.4,10.4,0,0,1-.67,1.58h0l-.34.59-.06.1a11.61,11.61,0,0,1-1.06,1.39,10.22,10.22,0,0,1-1.56,1.39A9.8,9.8,0,0,1,23,37.62a9.53,9.53,0,0,1-.77-.79,7.94,7.94,0,0,1-.58-.72A9.59,9.59,0,0,1,20.52,34a10,10,0,0,1-.64-4.44,3,3,0,0,1,.05-.43,1.52,1.52,0,0,1,0-.23,10.13,10.13,0,0,1,.55-2.08,10.34,10.34,0,0,1,.71-1.46,10.24,10.24,0,0,1,1.24-1.68,9.94,9.94,0,0,1,4.73-2.92A9.73,9.73,0,0,1,30,20.44ZM57.71,65.06a29.47,29.47,0,0,1-27.49,3.52,28.41,28.41,0,0,1-7.08-3.94h0c-.66-.5-1.32-1-1.95-1.62a28.32,28.32,0,0,1-2.05-2,26.61,26.61,0,0,1-2-2.44c-.13-.19-.26-.37-.38-.56a28.73,28.73,0,0,1-3-5.65,29.36,29.36,0,0,1-1.92-13.25c0-.3.05-.61.08-.91s.09-.71.14-1.06a32.68,32.68,0,0,1,.8-3.63c.24-.86.52-1.72.84-2.56.13-.33.27-.67.41-1a30,30,0,0,1,1.69-3.35,31.3,31.3,0,0,1,1.81-2.72,15.47,15.47,0,0,0-.78,1.65,13.48,13.48,0,0,0-.76,2.9c-.05.31-.09.62-.11.93,0,.12,0,.24,0,.36A13.08,13.08,0,0,0,16.15,33a12.55,12.55,0,0,0,.71,2.5,13.5,13.5,0,0,0,.92,1.87,11.59,11.59,0,0,0,.68,1,12.91,12.91,0,0,0,1.88,2.11,13.72,13.72,0,0,0,16.78,1.21A16.64,16.64,0,0,0,36,44.17,17,17,0,0,0,35,47.63c-.06.37-.1.74-.13,1.11a16.5,16.5,0,0,0,.85,6.79c.07.21.14.42.23.63a16,16,0,0,0,1.24,2.48c.2.33.43.67.66,1a16.18,16.18,0,0,0,2.25,2.52l.3.27a16,16,0,0,0,8.4,3.77h0a16.76,16.76,0,0,0,8.42-1.08h0c.3-.12.6-.26.89-.4l-.19.15-.27.2Zm9.81-17.82c0-.37-.12-.74-.2-1.1a16.2,16.2,0,0,0-1.13-3.36,15.77,15.77,0,0,0-3.78-5.14,16.37,16.37,0,0,0-20.58-1,13.78,13.78,0,0,0,1-2.25c0-.05,0-.09,0-.14h0a13.94,13.94,0,0,0,.61-4.66L39.5,30A9.87,9.87,0,0,1,39,33.18a10.4,10.4,0,0,1-.67,1.58h0l-.34.59-.06.1a11.61,11.61,0,0,1-1.06,1.39,10.22,10.22,0,0,1-1.56,1.39A9.8,9.8,0,0,1,23,37.62a9.53,9.53,0,0,1-.77-.79,7.94,7.94,0,0,1-.58-.72A9.59,9.59,0,0,1,20.52,34a9.94,9.94,0,0,1-.45-1.5l-3.92.5a12.55,12.55,0,0,0,.71,2.5,13.5,13.5,0,0,0,.92,1.87,11.59,11.59,0,0,0,.68,1,12.91,12.91,0,0,0,1.88,2.11,13.72,13.72,0,0,0,16.78,1.21A16.64,16.64,0,0,0,36,44.17,17,17,0,0,0,35,47.63c-.06.37-.1.74-.13,1.11a16.5,16.5,0,0,0,.85,6.79l4.82-.62c-.08-.18-.16-.36-.22-.54a11.84,11.84,0,0,1-.78-5.3,6.39,6.39,0,0,1,.1-.78,11.19,11.19,0,0,1,.65-2.48,11.6,11.6,0,0,1,.84-1.74,11.86,11.86,0,0,1,18.06-2.93,11.07,11.07,0,0,1,1.75,2,10.94,10.94,0,0,1,1,1.66,11.5,11.5,0,0,1,.81,2.4c.06.27.1.52.14.78a11.85,11.85,0,0,1-.11,4.07l4.82-.62A16.39,16.39,0,0,0,67.52,47.24ZM43.3,28.05c0-.31-.1-.61-.17-.91s-.15-.62-.23-.92l-4,.51a10.14,10.14,0,0,1,.38,1.3c0,.22.08.44.11.66A7.6,7.6,0,0,1,39.5,30l3.94-.51A14.81,14.81,0,0,0,43.3,28.05ZM19.88,29.59a3,3,0,0,1,.05-.43l-4,.51A13.08,13.08,0,0,0,16.15,33l3.92-.5A10,10,0,0,1,19.88,29.59Zm29,36.61a16.76,16.76,0,0,0,8.42-1.08ZM43.3,28.05c0-.31-.1-.61-.17-.91s-.15-.62-.23-.92l-4,.51a10.14,10.14,0,0,1,.38,1.3c0,.22.08.44.11.66A7.6,7.6,0,0,1,39.5,30l3.94-.51A14.81,14.81,0,0,0,43.3,28.05ZM19.88,29.59a3,3,0,0,1,.05-.43l-4,.51A13.08,13.08,0,0,0,16.15,33l3.92-.5A10,10,0,0,1,19.88,29.59Zm29,36.61a16.76,16.76,0,0,0,8.42-1.08ZM43.3,28.05c0-.31-.1-.61-.17-.91s-.15-.62-.23-.92l-4,.51a10.14,10.14,0,0,1,.38,1.3c0,.22.08.44.11.66A7.6,7.6,0,0,1,39.5,30l3.94-.51A14.81,14.81,0,0,0,43.3,28.05ZM19.88,29.59a3,3,0,0,1,.05-.43l-4,.51A13.08,13.08,0,0,0,16.15,33l3.92-.5A10,10,0,0,1,19.88,29.59Zm29,36.61a16.76,16.76,0,0,0,8.42-1.08ZM43.3,28.05c0-.31-.1-.61-.17-.91s-.15-.62-.23-.92l-4,.51a10.14,10.14,0,0,1,.38,1.3c0,.22.08.44.11.66A7.6,7.6,0,0,1,39.5,30l3.94-.51A14.81,14.81,0,0,0,43.3,28.05ZM48.85,66.2a16.76,16.76,0,0,0,8.42-1.08ZM43.3,28.05c0-.31-.1-.61-.17-.91s-.15-.62-.23-.92l-4,.51a10.14,10.14,0,0,1,.38,1.3c0,.22.08.44.11.66A7.6,7.6,0,0,1,39.5,30l3.94-.51A14.81,14.81,0,0,0,43.3,28.05ZM48.85,66.2a16.76,16.76,0,0,0,8.42-1.08ZM43.3,28.05c0-.31-.1-.61-.17-.91s-.15-.62-.23-.92l-4,.51a10.14,10.14,0,0,1,.38,1.3c0,.22.08.44.11.66A7.6,7.6,0,0,1,39.5,30l3.94-.51A14.81,14.81,0,0,0,43.3,28.05Z" fill="#f8ab1f"/><path d="M19.93,29.16l-4,.51c0-.12,0-.24,0-.36,0-.31.06-.62.11-.93a13.48,13.48,0,0,1,.76-2.9,15.47,15.47,0,0,1,.78-1.65,31.3,31.3,0,0,0-1.81,2.72,30,30,0,0,0-1.69,3.35L1.27,31.55a38.16,38.16,0,0,1,1.5-4.73c.39-1,.83-2.06,1.31-3.06l23.1-3a9.94,9.94,0,0,0-4.73,2.92,10.24,10.24,0,0,0-1.24,1.68,10.34,10.34,0,0,0-.71,1.46A10.13,10.13,0,0,0,20,28.93,1.52,1.52,0,0,0,19.93,29.16Z" fill="#ffe275"/><path d="M42.9,26.22l-4,.51c-.1-.24-.19-.49-.3-.72a11.27,11.27,0,0,0-.79-1.39,10.13,10.13,0,0,0-1.48-1.68A9.58,9.58,0,0,0,30,20.44l8.31-1.07c.25.2.5.41.74.63a13.12,13.12,0,0,1,2.06,2.37,13.86,13.86,0,0,1,1.11,1.94A16.27,16.27,0,0,1,42.9,26.22Z" fill="#ffe275"/><path d="M77.58,21.76,64.73,23.41a28.72,28.72,0,0,0-6.8-6.56l15.15-2c.7.85,1.34,1.72,2,2.61A39.5,39.5,0,0,1,77.58,21.76Z" fill="#ffe275"/><path d="M11.92,38.15.06,39.68q0-.72.09-1.44c.07-.93.18-1.85.32-2.76,0-.15,0-.3.07-.45l12.32-1.57a32.68,32.68,0,0,0-.8,3.63C12,37.44,12,37.79,11.92,38.15Z" fill="#ffe275"/><path d="M22.24,36.83l-4.46.57a13.5,13.5,0,0,1-.92-1.87,12.55,12.55,0,0,1-.71-2.5l3.92-.5a9.94,9.94,0,0,0,.45,1.5,9.59,9.59,0,0,0,1.14,2.08A7.94,7.94,0,0,0,22.24,36.83Z" fill="#ffe275"/><path d="M42.83,34.19h0l-4.45.56A10.4,10.4,0,0,0,39,33.18,9.87,9.87,0,0,0,39.5,30l3.94-.51A13.94,13.94,0,0,1,42.83,34.19Z" fill="#ffe275"/><path d="M80.58,29.34,68.7,30.87a26,26,0,0,0-1-2.46c-.29-.63-.61-1.26-1-1.87L79.06,25A40.51,40.51,0,0,1,80.58,29.34Z" fill="#ffe275"/><path d="M17.16,58.52a26.61,26.61,0,0,0,2,2.44L5.76,62.67c-.61-1-1.16-2-1.67-3.08L16.78,58C16.9,58.15,17,58.33,17.16,58.52Z" fill="#ffe275"/><path d="M42.62,57.94l-5.39.7A16,16,0,0,1,36,56.16c-.09-.21-.16-.42-.23-.63l4.82-.62a10.84,10.84,0,0,0,1.14,1.94A9.3,9.3,0,0,0,42.62,57.94Z" fill="#ffe275"/><path d="M80.16,53.13,61.48,55.52a10.78,10.78,0,0,0,1-2.17q.2-.63.33-1.29l4.82-.62A15.58,15.58,0,0,1,67,54.49a25.53,25.53,0,0,0,1.43-3.16l12.69-1.62A34.61,34.61,0,0,1,80.16,53.13Z" fill="#ffe275"/><path d="M23.14,64.64a28.41,28.41,0,0,0,7.08,3.94l-17.93,2.3A38.79,38.79,0,0,1,8.4,66.53l14.73-1.9Z" fill="#ffe275"/><path d="M75.66,62.75h0l-17.94,2.3h0l-.42,0h0L48.85,66.2h0a16,16,0,0,1-8.4-3.77l8.15-1.05a11.76,11.76,0,0,0,7.87-1h0l22-2.82a38.35,38.35,0,0,1-2.54,4.77A3.23,3.23,0,0,1,75.66,62.75Z" fill="#ffe275"/><path d="M69.38,49.31a29.44,29.44,0,0,0,1.1-13.39c-.09-.66-.21-1.31-.35-2a29,29,0,0,0-2-6,29.56,29.56,0,0,0-2.37-4.15,28.8,28.8,0,0,0-4.39-5,29.26,29.26,0,0,0-38.27-.72c.18-.11.37-.21.56-.31a29.26,29.26,0,0,1,37.3,1.48,28.86,28.86,0,0,1,4.39,5,28.47,28.47,0,0,1,2.37,4.15,29.52,29.52,0,0,1,2,6c.14.65.25,1.3.35,1.95A29.63,29.63,0,0,1,69,49.77a32,32,0,0,1-1.4,3.53c-.06.24-.11.49-.18.73A29.37,29.37,0,0,0,69.38,49.31Z" fill="#c56128"/><path d="M38.38,35l.06-.11a9.77,9.77,0,0,0,1-2.18,9.93,9.93,0,0,0,.37-4.49c0-.22-.07-.44-.12-.65a9.8,9.8,0,0,0-.68-2,9.56,9.56,0,0,0-.79-1.39,10.18,10.18,0,0,0-1.47-1.69,9.86,9.86,0,0,0-13.9.77l-.19.24a9.78,9.78,0,0,1,15.15,1.13,10.7,10.7,0,0,1,.79,1.4,9.72,9.72,0,0,1,.68,2c0,.22.08.44.11.66A9.79,9.79,0,0,1,39,33.18a10.47,10.47,0,0,1-1,2.18.61.61,0,0,1-.07.1,8.93,8.93,0,0,1-.84,1.13l.2-.2A10.56,10.56,0,0,0,38.38,35Z" fill="#c56128"/><path d="M61.57,55.62a.57.57,0,0,0,.08-.13,11.9,11.9,0,0,0,1.2-2.59,11.76,11.76,0,0,0,.44-5.36c0-.26-.08-.52-.14-.78a11.59,11.59,0,0,0-.81-2.41,11.39,11.39,0,0,0-.94-1.66A11.66,11.66,0,0,0,43.06,41.6l-.19.24a11.73,11.73,0,0,1,16.36-.7,11.54,11.54,0,0,1,3.51,6.07c0,.26.1.52.14.78a11.83,11.83,0,0,1-1.64,8l-.08.13a13.58,13.58,0,0,1-1,1.39l.2-.2A11.55,11.55,0,0,0,61.57,55.62Z" fill="#c56128"/><path d="M40.56,61.7a15.63,15.63,0,0,1-2.25-2.52,16.13,16.13,0,0,1-1.91-3.47,16.52,16.52,0,0,1-1.08-7.42c0-.38.08-.74.13-1.11a16.67,16.67,0,0,1,.92-3.46,17.32,17.32,0,0,1,1.16-2.42,13.69,13.69,0,0,1-16.77-1.2A13.36,13.36,0,0,1,18.87,38a13.1,13.1,0,0,1-1.59-2.91,13.78,13.78,0,0,1-.91-6.22c0-.31.06-.62.11-.93a13.35,13.35,0,0,1,.77-2.9A13,13,0,0,1,18,23.38c-.23.31-.44.62-.66.94s-.37.77-.53,1.16a15,15,0,0,0-.77,2.9c0,.31-.08.62-.1.93a13.75,13.75,0,0,0,.9,6.22,13.84,13.84,0,0,0,3.48,5,13.73,13.73,0,0,0,16.78,1.2A15.23,15.23,0,0,0,36,44.17,16.31,16.31,0,0,0,35,47.64c-.06.36-.1.73-.13,1.1A16.5,16.5,0,0,0,36,56.16a16.13,16.13,0,0,0,4.15,6A16.27,16.27,0,0,0,57.58,65c.28-.18.55-.37.82-.56l.2-.16A16.3,16.3,0,0,1,40.56,61.7Z" fill="#c56128"/><path d="M65.17,73.9a40.93,40.93,0,0,1-51.53-2.59A39.2,39.2,0,0,1,8,65a39.75,39.75,0,0,1-4.76-8.68A41.1,41.1,0,0,1,.56,37.78c.08-.92.18-1.84.32-2.76a41.33,41.33,0,0,1,2.3-8.66,40.11,40.11,0,0,1,2.94-6.09,41.72,41.72,0,0,1,5-6.8l-.21.23a42.54,42.54,0,0,0-5.17,7,41.19,41.19,0,0,0-2.94,6.1A41.84,41.84,0,0,0,.47,35.47c-.14.92-.25,1.84-.32,2.77a41,41,0,0,0,2.7,18.55A40.13,40.13,0,0,0,7.6,65.47a40.67,40.67,0,0,0,57.16,8.89,42.27,42.27,0,0,0,6.49-5.82c.08-.08.15-.17.22-.25A41.57,41.57,0,0,1,65.17,73.9Z" fill="#c56128"/></svg>